<?xml version="1.0" encoding="UTF-8"?>
<svg width="2635px" height="929px" viewBox="0 0 2635 929" version="1.1" xmlns="http://www.w3.org/2000/svg" xmlns:xlink="http://www.w3.org/1999/xlink">
    <!-- Generator: Sketch 51.2 (57519) - http://www.bohemiancoding.com/sketch -->
    <title>ECFLogo</title>
    <desc>Created with Sketch.</desc>
    <defs>
        <polygon id="path-1" points="0.3377228 928 823.337723 928 823.337723 0.4885 0.3377228 0.4885"></polygon>
        <polygon id="path-3" points="0.3377228 928 823.337723 928 823.337723 0.4885 0.3377228 0.4885"></polygon>
        <polygon id="path-5" points="0.3377228 928 823.337723 928 823.337723 0.4885 0.3377228 0.4885"></polygon>
        <polygon id="path-7" points="0.3377228 928 823.337723 928 823.337723 0.4885 0.3377228 0.4885"></polygon>
        <polygon id="path-9" points="0.3377228 928 823.337723 928 823.337723 0.4885 0.3377228 0.4885"></polygon>
        <polygon id="path-11" points="0.3377228 928 823.337723 928 823.337723 0.4885 0.3377228 0.4885"></polygon>
        <polygon id="path-13" points="0.3377228 928 823.337723 928 823.337723 0.4885 0.3377228 0.4885"></polygon>
        <polygon id="path-15" points="0.3377228 928 823.337723 928 823.337723 0.4885 0.3377228 0.4885"></polygon>
    </defs>
    <g id="ECFLogo" stroke="none" stroke-width="1" fill="none" fill-rule="evenodd">
        <g id="ecf">
            <g id="Fill-1-Clipped">
                <mask id="mask-2" fill="white">
                    <use xlink:href="#path-1"></use>
                </mask>
                <g id="path-1"></g>
                <path d="M132.2642,138.7676 L75.43326,171.8477 C38.06891,193.4275 37.55688,226.414 75.16205,248.1577 L411.841,444.0967 L535.3554,372.0577 L132.2642,138.7676 Z" id="Fill-1" fill="#333333" fill-rule="nonzero" mask="url(#mask-2)"></path>
            </g>
            <g id="Fill-3-Clipped">
                <mask id="mask-4" fill="white">
                    <use xlink:href="#path-3"></use>
                </mask>
                <g id="path-1"></g>
                <path d="M690.8225,281.6869 L814.0891,210.1113 L484.5646,18.4527 C441.5585,-6.3334 378.8848,-4.5477 341.5205,17.0322 L287.6565,48.4553 L690.8225,281.6869 Z" id="Fill-3" fill="#333333" fill-rule="nonzero" mask="url(#mask-4)"></path>
            </g>
            <g id="Fill-4-Clipped">
                <mask id="mask-6" fill="white">
                    <use xlink:href="#path-5"></use>
                </mask>
                <g id="path-1"></g>
                <polygon id="Fill-4" fill="#333333" fill-rule="nonzero" mask="url(#mask-6)" points="551.6013 362.7094 674.4775 291.2297 271.3114 57.8998 148.4213 129.4263"></polygon>
            </g>
            <g id="Fill-5-Clipped">
                <mask id="mask-8" fill="white">
                    <use xlink:href="#path-7"></use>
                </mask>
                <g id="path-1"></g>
                <path d="M402.4722,684.9845 L402.4886,460.295 L65.50567,264.225 C27.93558,242.5117 0.3372552,264.4473 0.3372552,307.572 L0.3442693,450.9338 L402.4722,684.9845 Z" id="Fill-5" fill="#333333" fill-rule="nonzero" mask="url(#mask-8)"></path>
            </g>
            <g id="Fill-6-Clipped">
                <mask id="mask-10" fill="white">
                    <use xlink:href="#path-9"></use>
                </mask>
                <g id="path-1"></g>
                <path d="M0.3438017,469.6569 L0.4419997,614.8395 C0.4419997,670.0775 31.29722,712.3667 68.86966,734.0776 L402.4881,928.354981 L402.4881,703.6959 L0.3438017,469.6569 Z" id="Fill-6" fill="#333333" fill-rule="nonzero" mask="url(#mask-10)"></path>
            </g>
            <g id="Fill-7-Clipped">
                <mask id="mask-12" fill="white">
                    <use xlink:href="#path-11"></use>
                </mask>
                <g id="path-1"></g>
                <path d="M823.3368,371.3633 L823.3368,226.2649 L496.0194,416.7604 C452.0571,442.4358 421.1925,488.4694 421.1925,539.5347 L421.1925,605.3929 L823.3368,371.3633 Z" id="Fill-7" fill="#333333" fill-rule="nonzero" mask="url(#mask-12)"></path>
            </g>
            <g id="Fill-8-Clipped">
                <mask id="mask-14" fill="white">
                    <use xlink:href="#path-13"></use>
                </mask>
                <g id="path-1"></g>
                <polygon id="Fill-8" fill="#333333" fill-rule="nonzero" mask="url(#mask-14)" points="684.2959 611.382 684.2959 471.2755 421.193 624.1155 421.193 764.5333"></polygon>
            </g>
            <g id="Fill-9-Clipped">
                <mask id="mask-16" fill="white">
                    <use xlink:href="#path-15"></use>
                </mask>
                <g id="path-1"></g>
                <polygon id="Fill-9" fill="#333333" fill-rule="nonzero" mask="url(#mask-16)" points="421.1925 783.2566 421.1925 928.354981 544.8986 856.36981 544.8986 711.5453"></polygon>
            </g>
        </g>
        <path d="M1148.18,241 C1146.44666,241 1144.93001,240.350006 1143.63,239.05 C1142.32999,237.749993 1141.68,236.233342 1141.68,234.5 L1141.68,65.76 C1141.68,63.8533238 1142.28666,62.2500065 1143.5,60.95 C1144.71334,59.6499935 1146.27332,59 1148.18,59 L1270.9,59 C1272.80668,59 1274.40999,59.6499935 1275.71,60.95 C1277.01001,62.2500065 1277.66,63.8533238 1277.66,65.76 L1277.66,91.5 C1277.66,93.4066762 1277.01001,94.9666606 1275.71,96.18 C1274.40999,97.3933394 1272.80668,98 1270.9,98 L1188.74,98 L1188.74,131.02 L1265.18,131.02 C1267.08668,131.02 1268.68999,131.669993 1269.99,132.97 C1271.29001,134.270006 1271.94,135.873324 1271.94,137.78 L1271.94,161.44 C1271.94,163.346676 1271.29001,164.949993 1269.99,166.25 C1268.68999,167.550006 1267.08668,168.2 1265.18,168.2 L1188.74,168.2 L1188.74,202 L1272.98,202 C1274.88668,202 1276.48999,202.649993 1277.79,203.95 C1279.09001,205.250006 1279.74,206.853324 1279.74,208.76 L1279.74,234.5 C1279.74,236.406676 1279.09001,237.966661 1277.79,239.18 C1276.48999,240.393339 1274.88668,241 1272.98,241 L1148.18,241 Z M1375.68,241 C1338.93315,241 1320.56,223.753506 1320.56,189.26 L1320.56,141.16 L1300.02,141.16 C1298.28666,141.16 1296.77001,140.510006 1295.47,139.21 C1294.16999,137.909993 1293.52,136.393342 1293.52,134.66 L1293.52,112.3 C1293.52,110.393324 1294.16999,108.833339 1295.47,107.62 C1296.77001,106.406661 1298.28666,105.8 1300.02,105.8 L1320.56,105.8 L1320.56,62.9 C1320.56,60.9933238 1321.20999,59.4333394 1322.51,58.22 C1323.81001,57.0066606 1325.32666,56.4 1327.06,56.4 L1359.04,56.4 C1360.94668,56.4 1362.50666,57.0066606 1363.72,58.22 C1364.93334,59.4333394 1365.54,60.9933238 1365.54,62.9 L1365.54,105.8 L1398.04,105.8 C1399.94668,105.8 1401.54999,106.406661 1402.85,107.62 C1404.15001,108.833339 1404.8,110.393324 1404.8,112.3 L1404.8,134.66 C1404.8,136.566676 1404.15001,138.126661 1402.85,139.34 C1401.54999,140.553339 1399.94668,141.16 1398.04,141.16 L1365.54,141.16 L1365.54,185.36 C1365.54,191.426697 1366.66666,196.019984 1368.92,199.14 C1371.17334,202.260016 1374.81331,203.82 1379.84,203.82 L1400.38,203.82 C1402.28668,203.82 1403.84666,204.469993 1405.06,205.77 C1406.27334,207.070006 1406.88,208.673324 1406.88,210.58 L1406.88,234.5 C1406.88,236.233342 1406.27334,237.749993 1405.06,239.05 C1403.84666,240.350006 1402.28668,241 1400.38,241 L1375.68,241 Z M1434.7,241 C1432.79332,241 1431.19001,240.393339 1429.89,239.18 C1428.58999,237.966661 1427.94,236.406676 1427.94,234.5 L1427.94,62.9 C1427.94,60.9933238 1428.58999,59.4333394 1429.89,58.22 C1431.19001,57.0066606 1432.79332,56.4 1434.7,56.4 L1469.8,56.4 C1471.70668,56.4 1473.30999,57.0066606 1474.61,58.22 C1475.91001,59.4333394 1476.56,60.9933238 1476.56,62.9 L1476.56,120.88 C1486.61338,109.093274 1500.21991,103.2 1517.38,103.2 C1527.26005,103.2 1536.18663,105.453311 1544.16,109.96 C1552.13337,114.466689 1558.37331,121.139956 1562.88,129.98 C1567.38669,138.820044 1569.64,149.479938 1569.64,161.96 L1569.64,234.5 C1569.64,236.406676 1568.99001,237.966661 1567.69,239.18 C1566.38999,240.393339 1564.78668,241 1562.88,241 L1527.52,241 C1525.78666,241 1524.27001,240.350006 1522.97,239.05 C1521.66999,237.749993 1521.02,236.233342 1521.02,234.5 L1521.02,163.52 C1521.02,155.893295 1519.11335,149.956688 1515.3,145.71 C1511.48665,141.463312 1506.0267,139.34 1498.92,139.34 C1491.98663,139.34 1486.52669,141.463312 1482.54,145.71 C1478.55331,149.956688 1476.56,155.893295 1476.56,163.52 L1476.56,234.5 C1476.56,236.406676 1475.91001,237.966661 1474.61,239.18 C1473.30999,240.393339 1471.70668,241 1469.8,241 L1434.7,241 Z M1661.42,243.6 C1640.27323,243.6 1623.63339,237.92339 1611.5,226.57 C1599.36661,215.21661 1593.12667,198.706775 1592.78,177.04 L1592.78,168.98 C1593.47334,148.35323 1599.88661,132.233391 1612.02,120.62 C1624.15339,109.006609 1640.53323,103.2 1661.16,103.2 C1676.06674,103.2 1688.67662,106.18997 1698.99,112.17 C1709.30338,118.15003 1717.01664,126.383281 1722.13,136.87 C1727.24336,147.356719 1729.8,159.273267 1729.8,172.62 L1729.8,179.12 C1729.8,181.026676 1729.15001,182.629993 1727.85,183.93 C1726.54999,185.230006 1724.94668,185.88 1723.04,185.88 L1640.62,185.88 L1640.62,187.44 C1640.79333,195.240039 1642.61332,201.523309 1646.08,206.29 C1649.54668,211.056691 1654.48663,213.44 1660.9,213.44 C1665.06002,213.44 1668.39665,212.616675 1670.91,210.97 C1673.42335,209.323325 1675.80666,207.200013 1678.06,204.6 C1679.62001,202.866658 1680.87666,201.783336 1681.83,201.35 C1682.78334,200.916665 1684.29999,200.7 1686.38,200.7 L1720.44,200.7 C1722.00001,200.7 1723.34333,201.176662 1724.47,202.13 C1725.59667,203.083338 1726.16,204.253326 1726.16,205.64 C1726.16,210.146689 1723.60336,215.433303 1718.49,221.5 C1713.37664,227.566697 1705.92338,232.766645 1696.13,237.1 C1686.33662,241.433355 1674.76673,243.6 1661.42,243.6 Z M1681.96,159.36 L1681.96,158.84 C1681.96,150.519958 1680.14002,144.063356 1676.5,139.47 C1672.85998,134.876644 1667.7467,132.58 1661.16,132.58 C1654.5733,132.58 1649.50335,134.876644 1645.95,139.47 C1642.39665,144.063356 1640.62,150.519958 1640.62,158.84 L1640.62,159.36 L1681.96,159.36 Z M1759.7,241 C1757.96666,241 1756.45001,240.350006 1755.15,239.05 C1753.84999,237.749993 1753.2,236.233342 1753.2,234.5 L1753.2,112.56 C1753.2,110.653324 1753.80666,109.050007 1755.02,107.75 C1756.23334,106.449993 1757.79332,105.8 1759.7,105.8 L1791.42,105.8 C1793.32668,105.8 1794.92999,106.449993 1796.23,107.75 C1797.53001,109.050007 1798.18,110.653324 1798.18,112.56 L1798.18,122.44 C1803.03336,117.06664 1808.70997,112.950014 1815.21,110.09 C1821.71003,107.229986 1828.94663,105.8 1836.92,105.8 L1848.62,105.8 C1850.52668,105.8 1852.08666,106.406661 1853.3,107.62 C1854.51334,108.833339 1855.12,110.393324 1855.12,112.3 L1855.12,140.64 C1855.12,142.373342 1854.51334,143.889993 1853.3,145.19 C1852.08666,146.490006 1850.52668,147.14 1848.62,147.14 L1822.36,147.14 C1815.42663,147.14 1810.09669,149.046648 1806.37,152.86 C1802.64331,156.673352 1800.78,162.046632 1800.78,168.98 L1800.78,234.5 C1800.78,236.406676 1800.13001,237.966661 1798.83,239.18 C1797.52999,240.393339 1795.92668,241 1794.02,241 L1759.7,241 Z M1935.46,243.6 C1914.31323,243.6 1897.67339,237.92339 1885.54,226.57 C1873.40661,215.21661 1867.16667,198.706775 1866.82,177.04 L1866.82,168.98 C1867.51334,148.35323 1873.92661,132.233391 1886.06,120.62 C1898.19339,109.006609 1914.57323,103.2 1935.2,103.2 C1950.10674,103.2 1962.71662,106.18997 1973.03,112.17 C1983.34338,118.15003 1991.05664,126.383281 1996.17,136.87 C2001.28336,147.356719 2003.84,159.273267 2003.84,172.62 L2003.84,179.12 C2003.84,181.026676 2003.19001,182.629993 2001.89,183.93 C2000.58999,185.230006 1998.98668,185.88 1997.08,185.88 L1914.66,185.88 L1914.66,187.44 C1914.83333,195.240039 1916.65332,201.523309 1920.12,206.29 C1923.58668,211.056691 1928.52663,213.44 1934.94,213.44 C1939.10002,213.44 1942.43665,212.616675 1944.95,210.97 C1947.46335,209.323325 1949.84666,207.200013 1952.1,204.6 C1953.66001,202.866658 1954.91666,201.783336 1955.87,201.35 C1956.82334,200.916665 1958.33999,200.7 1960.42,200.7 L1994.48,200.7 C1996.04001,200.7 1997.38333,201.176662 1998.51,202.13 C1999.63667,203.083338 2000.2,204.253326 2000.2,205.64 C2000.2,210.146689 1997.64336,215.433303 1992.53,221.5 C1987.41664,227.566697 1979.96338,232.766645 1970.17,237.1 C1960.37662,241.433355 1948.80673,243.6 1935.46,243.6 Z M1956,159.36 L1956,158.84 C1956,150.519958 1954.18002,144.063356 1950.54,139.47 C1946.89998,134.876644 1941.7867,132.58 1935.2,132.58 C1928.6133,132.58 1923.54335,134.876644 1919.99,139.47 C1916.43665,144.063356 1914.66,150.519958 1914.66,158.84 L1914.66,159.36 L1956,159.36 Z M2076.9,243.6 C2061.64659,243.6 2049.34005,238.486718 2039.98,228.26 C2030.61995,218.033282 2025.94,203.560094 2025.94,184.84 L2025.94,112.3 C2025.94,110.393324 2026.58999,108.833339 2027.89,107.62 C2029.19001,106.406661 2030.70666,105.8 2032.44,105.8 L2067.02,105.8 C2068.92668,105.8 2070.52999,106.406661 2071.83,107.62 C2073.13001,108.833339 2073.78,110.393324 2073.78,112.3 L2073.78,183.28 C2073.78,199.400081 2080.97326,207.46 2095.36,207.46 C2102.29337,207.46 2107.70998,205.336688 2111.61,201.09 C2115.51002,196.843312 2117.46,190.906705 2117.46,183.28 L2117.46,112.3 C2117.46,110.393324 2118.10999,108.833339 2119.41,107.62 C2120.71001,106.406661 2122.31332,105.8 2124.22,105.8 L2158.54,105.8 C2160.44668,105.8 2162.00666,106.406661 2163.22,107.62 C2164.43334,108.833339 2165.04,110.393324 2165.04,112.3 L2165.04,234.5 C2165.04,236.233342 2164.43334,237.749993 2163.22,239.05 C2162.00666,240.350006 2160.44668,241 2158.54,241 L2126.82,241 C2124.91332,241 2123.31001,240.393339 2122.01,239.18 C2120.70999,237.966661 2120.06,236.406676 2120.06,234.5 L2120.06,224.62 C2111.04662,237.273397 2096.6601,243.6 2076.9,243.6 Z M2201.18,241 C2199.44666,241 2197.93001,240.350006 2196.63,239.05 C2195.32999,237.749993 2194.68,236.233342 2194.68,234.5 L2194.68,112.3 C2194.68,110.393324 2195.32999,108.833339 2196.63,107.62 C2197.93001,106.406661 2199.44666,105.8 2201.18,105.8 L2231.34,105.8 C2233.24668,105.8 2234.80666,106.406661 2236.02,107.62 C2237.23334,108.833339 2237.84,110.393324 2237.84,112.3 L2237.84,121.14 C2242.00002,116.113308 2247.3733,111.866684 2253.96,108.4 C2260.5467,104.933316 2267.99996,103.2 2276.32,103.2 C2295.38676,103.2 2308.4733,110.653259 2315.58,125.56 C2319.74002,118.9733 2325.54663,113.600021 2333,109.44 C2340.45337,105.279979 2348.42662,103.2 2356.92,103.2 C2371.1334,103.2 2382.70329,108.009952 2391.63,117.63 C2400.55671,127.250048 2405.02,141.593238 2405.02,160.66 L2405.02,234.5 C2405.02,236.233342 2404.41334,237.749993 2403.2,239.05 C2401.98666,240.350006 2400.42668,241 2398.52,241 L2366.54,241 C2364.63332,241 2363.03001,240.393339 2361.73,239.18 C2360.42999,237.966661 2359.78,236.406676 2359.78,234.5 L2359.78,162.48 C2359.78,154.506627 2358.09002,148.656685 2354.71,144.93 C2351.32998,141.203315 2346.78003,139.34 2341.06,139.34 C2335.68664,139.34 2331.31002,141.203315 2327.93,144.93 C2324.54998,148.656685 2322.86,154.506627 2322.86,162.48 L2322.86,234.5 C2322.86,236.233342 2322.25334,237.749993 2321.04,239.05 C2319.82666,240.350006 2318.26668,241 2316.36,241 L2284.38,241 C2282.47332,241 2280.87001,240.393339 2279.57,239.18 C2278.26999,237.966661 2277.62,236.406676 2277.62,234.5 L2277.62,162.48 C2277.62,154.506627 2275.88668,148.656685 2272.42,144.93 C2268.95332,141.203315 2264.44669,139.34 2258.9,139.34 C2253.52664,139.34 2249.10668,141.203315 2245.64,144.93 C2242.17332,148.656685 2240.44,154.419961 2240.44,162.22 L2240.44,234.5 C2240.44,236.233342 2239.83334,237.749993 2238.62,239.05 C2237.40666,240.350006 2235.84668,241 2233.94,241 L2201.18,241 Z M1217.08,555.6 C1192.29321,555.6 1172.83674,549.62006 1158.71,537.66 C1144.58326,525.69994 1137.08667,508.193449 1136.22,485.14 C1136.04667,480.459977 1135.96,472.833386 1135.96,462.26 C1135.96,451.51328 1136.04667,443.713358 1136.22,438.86 C1137.08667,416.326554 1144.66993,398.950061 1158.97,386.73 C1173.27007,374.509939 1192.63988,368.4 1217.08,368.4 C1232.50674,368.4 1246.32994,370.913308 1258.55,375.94 C1270.77006,380.966692 1280.4333,388.246619 1287.54,397.78 C1294.6467,407.313381 1298.37333,418.579935 1298.72,431.58 C1298.72,433.140008 1298.15667,434.439995 1297.03,435.48 C1295.90333,436.520005 1294.56001,437.04 1293,437.04 L1256.08,437.04 C1253.65332,437.04 1251.87667,436.563338 1250.75,435.61 C1249.62333,434.656662 1248.62667,432.880013 1247.76,430.28 C1245.33332,421.786624 1241.65002,415.850017 1236.71,412.47 C1231.76998,409.089983 1225.22671,407.4 1217.08,407.4 C1197.49324,407.4 1187.35334,418.319891 1186.66,440.16 C1186.48667,444.840023 1186.4,452.033285 1186.4,461.74 C1186.4,471.446715 1186.48667,478.813308 1186.66,483.84 C1187.35334,505.680109 1197.49324,516.6 1217.08,516.6 C1225.05337,516.6 1231.59664,514.866684 1236.71,511.4 C1241.82336,507.933316 1245.50666,502.040042 1247.76,493.72 C1248.45334,491.119987 1249.40666,489.343338 1250.62,488.39 C1251.83334,487.436662 1253.65332,486.96 1256.08,486.96 L1293,486.96 C1294.56001,486.96 1295.90333,487.479995 1297.03,488.52 C1298.15667,489.560005 1298.72,490.859992 1298.72,492.42 C1298.37333,505.420065 1294.6467,516.686619 1287.54,526.22 C1280.4333,535.753381 1270.77006,543.033308 1258.55,548.06 C1246.32994,553.086692 1232.50674,555.6 1217.08,555.6 Z M1387.38,555.6 C1365.53989,555.6 1348.77006,550.530051 1337.07,540.39 C1325.36994,530.249949 1319.00001,515.820094 1317.96,497.1 C1317.78667,494.846655 1317.7,490.946694 1317.7,485.4 C1317.7,479.853306 1317.78667,475.953345 1317.96,473.7 C1319.00001,455.326575 1325.54327,440.983385 1337.59,430.67 C1349.63673,420.356615 1366.23323,415.2 1387.38,415.2 C1408.52677,415.2 1425.12327,420.356615 1437.17,430.67 C1449.21673,440.983385 1455.75999,455.326575 1456.8,473.7 C1457.14667,478.206689 1457.32,482.10665 1457.32,485.4 C1457.32,488.69335 1457.14667,492.593311 1456.8,497.1 C1455.75999,515.820094 1449.39006,530.249949 1437.69,540.39 C1425.98994,550.530051 1409.22011,555.6 1387.38,555.6 Z M1387.38,522.84 C1394.4867,522.84 1399.77332,520.630022 1403.24,516.21 C1406.70668,511.789978 1408.7,504.986713 1409.22,495.8 C1409.39333,494.066658 1409.48,490.600026 1409.48,485.4 C1409.48,480.199974 1409.39333,476.733342 1409.22,475 C1408.7,465.986622 1406.70668,459.226689 1403.24,454.72 C1399.77332,450.213311 1394.4867,447.96 1387.38,447.96 C1380.2733,447.96 1374.98668,450.213311 1371.52,454.72 C1368.05332,459.226689 1366.06,465.986622 1365.54,475 L1365.28,485.4 L1365.54,495.8 C1366.06,504.986713 1368.05332,511.789978 1371.52,516.21 C1374.98668,520.630022 1380.2733,522.84 1387.38,522.84 Z M1488.52,553 C1486.78666,553 1485.27001,552.350007 1483.97,551.05 C1482.66999,549.749994 1482.02,548.233342 1482.02,546.5 L1482.02,424.3 C1482.02,422.393324 1482.66999,420.833339 1483.97,419.62 C1485.27001,418.406661 1486.78666,417.8 1488.52,417.8 L1518.68,417.8 C1520.58668,417.8 1522.14666,418.406661 1523.36,419.62 C1524.57334,420.833339 1525.18,422.393324 1525.18,424.3 L1525.18,433.14 C1529.34002,428.113308 1534.7133,423.866684 1541.3,420.4 C1547.8867,416.933316 1555.33996,415.2 1563.66,415.2 C1582.72676,415.2 1595.8133,422.653259 1602.92,437.56 C1607.08002,430.9733 1612.88663,425.600021 1620.34,421.44 C1627.79337,417.279979 1635.76662,415.2 1644.26,415.2 C1658.4734,415.2 1670.04329,420.009952 1678.97,429.63 C1687.89671,439.250048 1692.36,453.593238 1692.36,472.66 L1692.36,546.5 C1692.36,548.233342 1691.75334,549.749994 1690.54,551.05 C1689.32666,552.350007 1687.76668,553 1685.86,553 L1653.88,553 C1651.97332,553 1650.37001,552.393339 1649.07,551.18 C1647.76999,549.966661 1647.12,548.406676 1647.12,546.5 L1647.12,474.48 C1647.12,466.506627 1645.43002,460.656685 1642.05,456.93 C1638.66998,453.203315 1634.12003,451.34 1628.4,451.34 C1623.02664,451.34 1618.65002,453.203315 1615.27,456.93 C1611.88998,460.656685 1610.2,466.506627 1610.2,474.48 L1610.2,546.5 C1610.2,548.233342 1609.59334,549.749994 1608.38,551.05 C1607.16666,552.350007 1605.60668,553 1603.7,553 L1571.72,553 C1569.81332,553 1568.21001,552.393339 1566.91,551.18 C1565.60999,549.966661 1564.96,548.406676 1564.96,546.5 L1564.96,474.48 C1564.96,466.506627 1563.22668,460.656685 1559.76,456.93 C1556.29332,453.203315 1551.78669,451.34 1546.24,451.34 C1540.86664,451.34 1536.44668,453.203315 1532.98,456.93 C1529.51332,460.656685 1527.78,466.419961 1527.78,474.22 L1527.78,546.5 C1527.78,548.233342 1527.17334,549.749994 1525.96,551.05 C1524.74666,552.350007 1523.18668,553 1521.28,553 L1488.52,553 Z M1727.2,553 C1725.46666,553 1723.95001,552.350007 1722.65,551.05 C1721.34999,549.749994 1720.7,548.233342 1720.7,546.5 L1720.7,424.3 C1720.7,422.393324 1721.34999,420.833339 1722.65,419.62 C1723.95001,418.406661 1725.46666,417.8 1727.2,417.8 L1757.36,417.8 C1759.26668,417.8 1760.82666,418.406661 1762.04,419.62 C1763.25334,420.833339 1763.86,422.393324 1763.86,424.3 L1763.86,433.14 C1768.02002,428.113308 1773.3933,423.866684 1779.98,420.4 C1786.5667,416.933316 1794.01996,415.2 1802.34,415.2 C1821.40676,415.2 1834.4933,422.653259 1841.6,437.56 C1845.76002,430.9733 1851.56663,425.600021 1859.02,421.44 C1866.47337,417.279979 1874.44662,415.2 1882.94,415.2 C1897.1534,415.2 1908.72329,420.009952 1917.65,429.63 C1926.57671,439.250048 1931.04,453.593238 1931.04,472.66 L1931.04,546.5 C1931.04,548.233342 1930.43334,549.749994 1929.22,551.05 C1928.00666,552.350007 1926.44668,553 1924.54,553 L1892.56,553 C1890.65332,553 1889.05001,552.393339 1887.75,551.18 C1886.44999,549.966661 1885.8,548.406676 1885.8,546.5 L1885.8,474.48 C1885.8,466.506627 1884.11002,460.656685 1880.73,456.93 C1877.34998,453.203315 1872.80003,451.34 1867.08,451.34 C1861.70664,451.34 1857.33002,453.203315 1853.95,456.93 C1850.56998,460.656685 1848.88,466.506627 1848.88,474.48 L1848.88,546.5 C1848.88,548.233342 1848.27334,549.749994 1847.06,551.05 C1845.84666,552.350007 1844.28668,553 1842.38,553 L1810.4,553 C1808.49332,553 1806.89001,552.393339 1805.59,551.18 C1804.28999,549.966661 1803.64,548.406676 1803.64,546.5 L1803.64,474.48 C1803.64,466.506627 1801.90668,460.656685 1798.44,456.93 C1794.97332,453.203315 1790.46669,451.34 1784.92,451.34 C1779.54664,451.34 1775.12668,453.203315 1771.66,456.93 C1768.19332,460.656685 1766.46,466.419961 1766.46,474.22 L1766.46,546.5 C1766.46,548.233342 1765.85334,549.749994 1764.64,551.05 C1763.42666,552.350007 1761.86668,553 1759.96,553 L1727.2,553 Z M2009.04,555.6 C1993.78659,555.6 1981.48005,550.486718 1972.12,540.26 C1962.75995,530.033282 1958.08,515.560094 1958.08,496.84 L1958.08,424.3 C1958.08,422.393324 1958.72999,420.833339 1960.03,419.62 C1961.33001,418.406661 1962.84666,417.8 1964.58,417.8 L1999.16,417.8 C2001.06668,417.8 2002.66999,418.406661 2003.97,419.62 C2005.27001,420.833339 2005.92,422.393324 2005.92,424.3 L2005.92,495.28 C2005.92,511.400081 2013.11326,519.46 2027.5,519.46 C2034.43337,519.46 2039.84998,517.336688 2043.75,513.09 C2047.65002,508.843312 2049.6,502.906705 2049.6,495.28 L2049.6,424.3 C2049.6,422.393324 2050.24999,420.833339 2051.55,419.62 C2052.85001,418.406661 2054.45332,417.8 2056.36,417.8 L2090.68,417.8 C2092.58668,417.8 2094.14666,418.406661 2095.36,419.62 C2096.57334,420.833339 2097.18,422.393324 2097.18,424.3 L2097.18,546.5 C2097.18,548.233342 2096.57334,549.749994 2095.36,551.05 C2094.14666,552.350007 2092.58668,553 2090.68,553 L2058.96,553 C2057.05332,553 2055.45001,552.393339 2054.15,551.18 C2052.84999,549.966661 2052.2,548.406676 2052.2,546.5 L2052.2,536.62 C2043.18662,549.273397 2028.8001,555.6 2009.04,555.6 Z M2133.32,553 C2131.58666,553 2130.07001,552.350007 2128.77,551.05 C2127.46999,549.749994 2126.82,548.233342 2126.82,546.5 L2126.82,424.3 C2126.82,422.393324 2127.46999,420.833339 2128.77,419.62 C2130.07001,418.406661 2131.58666,417.8 2133.32,417.8 L2165.3,417.8 C2167.20668,417.8 2168.76666,418.406661 2169.98,419.62 C2171.19334,420.833339 2171.8,422.393324 2171.8,424.3 L2171.8,434.18 C2176.48002,428.459971 2182.5033,423.866684 2189.87,420.4 C2197.2367,416.933316 2205.68662,415.2 2215.22,415.2 C2225.10005,415.2 2233.89663,417.453311 2241.61,421.96 C2249.32337,426.466689 2255.38998,433.139956 2259.81,441.98 C2264.23002,450.820044 2266.44,461.479938 2266.44,473.96 L2266.44,546.5 C2266.44,548.233342 2265.83334,549.749994 2264.62,551.05 C2263.40666,552.350007 2261.84668,553 2259.94,553 L2225.36,553 C2223.45332,553 2221.85001,552.393339 2220.55,551.18 C2219.24999,549.966661 2218.6,548.406676 2218.6,546.5 L2218.6,475.52 C2218.6,467.719961 2216.73669,461.740021 2213.01,457.58 C2209.28331,453.419979 2203.8667,451.34 2196.76,451.34 C2189.82663,451.34 2184.36669,453.463312 2180.38,457.71 C2176.39331,461.956688 2174.4,467.893295 2174.4,475.52 L2174.4,546.5 C2174.4,548.233342 2173.79334,549.749994 2172.58,551.05 C2171.36666,552.350007 2169.80668,553 2167.9,553 L2133.32,553 Z M2301.28,399.08 C2299.37332,399.08 2297.81334,398.430006 2296.6,397.13 C2295.38666,395.829994 2294.78,394.226676 2294.78,392.32 L2294.78,368.14 C2294.78,366.233324 2295.42999,364.630007 2296.73,363.33 C2298.03001,362.029994 2299.54666,361.38 2301.28,361.38 L2333.78,361.38 C2335.68668,361.38 2337.28999,362.029994 2338.59,363.33 C2339.89001,364.630007 2340.54,366.233324 2340.54,368.14 L2340.54,392.32 C2340.54,394.226676 2339.89001,395.829994 2338.59,397.13 C2337.28999,398.430006 2335.68668,399.08 2333.78,399.08 L2301.28,399.08 Z M2301.28,553 C2299.54666,553 2298.03001,552.350007 2296.73,551.05 C2295.42999,549.749994 2294.78,548.233342 2294.78,546.5 L2294.78,424.3 C2294.78,422.393324 2295.42999,420.833339 2296.73,419.62 C2298.03001,418.406661 2299.54666,417.8 2301.28,417.8 L2333.78,417.8 C2335.68668,417.8 2337.28999,418.406661 2338.59,419.62 C2339.89001,420.833339 2340.54,422.393324 2340.54,424.3 L2340.54,546.5 C2340.54,548.406676 2339.89001,549.966661 2338.59,551.18 C2337.28999,552.393339 2335.68668,553 2333.78,553 L2301.28,553 Z M2441.16,553 C2404.41315,553 2386.04,535.753506 2386.04,501.26 L2386.04,453.16 L2365.5,453.16 C2363.76666,453.16 2362.25001,452.510006 2360.95,451.21 C2359.64999,449.909994 2359,448.393342 2359,446.66 L2359,424.3 C2359,422.393324 2359.64999,420.833339 2360.95,419.62 C2362.25001,418.406661 2363.76666,417.8 2365.5,417.8 L2386.04,417.8 L2386.04,374.9 C2386.04,372.993324 2386.68999,371.433339 2387.99,370.22 C2389.29001,369.006661 2390.80666,368.4 2392.54,368.4 L2424.52,368.4 C2426.42668,368.4 2427.98666,369.006661 2429.2,370.22 C2430.41334,371.433339 2431.02,372.993324 2431.02,374.9 L2431.02,417.8 L2463.52,417.8 C2465.42668,417.8 2467.02999,418.406661 2468.33,419.62 C2469.63001,420.833339 2470.28,422.393324 2470.28,424.3 L2470.28,446.66 C2470.28,448.566676 2469.63001,450.126661 2468.33,451.34 C2467.02999,452.553339 2465.42668,453.16 2463.52,453.16 L2431.02,453.16 L2431.02,497.36 C2431.02,503.426697 2432.14666,508.019984 2434.4,511.14 C2436.65334,514.260016 2440.29331,515.82 2445.32,515.82 L2465.86,515.82 C2467.76668,515.82 2469.32666,516.469993 2470.54,517.77 C2471.75334,519.070006 2472.36,520.673324 2472.36,522.58 L2472.36,546.5 C2472.36,548.233342 2471.75334,549.749994 2470.54,551.05 C2469.32666,552.350007 2467.76668,553 2465.86,553 L2441.16,553 Z M2518.9,602.4 C2517.33999,602.4 2516.04001,601.880005 2515,600.84 C2513.95999,599.799995 2513.44,598.500008 2513.44,596.94 C2513.44,595.726661 2513.61333,594.600005 2513.96,593.56 L2534.5,544.68 L2484.58,426.64 C2484.06,425.253326 2483.8,424.300003 2483.8,423.78 C2484.14667,422.046658 2484.88333,420.616672 2486.01,419.49 C2487.13667,418.363328 2488.47999,417.8 2490.04,417.8 L2520.98,417.8 C2524.62002,417.8 2527.13333,419.619982 2528.52,423.26 L2557.38,497.1 L2587.02,423.26 C2588.75334,419.619982 2591.35332,417.8 2594.82,417.8 L2625.5,417.8 C2627.06001,417.8 2628.40333,418.363328 2629.53,419.49 C2630.65667,420.616672 2631.22,421.873326 2631.22,423.26 C2631.22,424.473339 2631.04667,425.599995 2630.7,426.64 L2557.12,596.94 C2555.38666,600.580018 2552.70002,602.4 2549.06,602.4 L2518.9,602.4 Z M1148.18,865 C1146.44666,865 1144.93001,864.350006 1143.63,863.05 C1142.32999,861.749993 1141.68,860.233342 1141.68,858.5 L1141.68,689.76 C1141.68,687.853324 1142.28666,686.250006 1143.5,684.95 C1144.71334,683.649993 1146.27332,683 1148.18,683 L1269.08,683 C1270.98668,683 1272.58999,683.649993 1273.89,684.95 C1275.19001,686.250006 1275.84,687.853324 1275.84,689.76 L1275.84,717.32 C1275.84,719.226676 1275.19001,720.786661 1273.89,722 C1272.58999,723.213339 1270.98668,723.82 1269.08,723.82 L1189.52,723.82 L1189.52,759.96 L1263.88,759.96 C1265.78668,759.96 1267.38999,760.609993 1268.69,761.91 C1269.99001,763.210006 1270.64,764.813324 1270.64,766.72 L1270.64,794.28 C1270.64,796.186676 1269.99001,797.746661 1268.69,798.96 C1267.38999,800.173339 1265.78668,800.78 1263.88,800.78 L1189.52,800.78 L1189.52,858.5 C1189.52,860.233342 1188.91334,861.749993 1187.7,863.05 C1186.48666,864.350006 1184.92668,865 1183.02,865 L1148.18,865 Z M1348.9,867.6 C1333.64659,867.6 1321.34005,862.486718 1311.98,852.26 C1302.61995,842.033282 1297.94,827.560094 1297.94,808.84 L1297.94,736.3 C1297.94,734.393324 1298.58999,732.833339 1299.89,731.62 C1301.19001,730.406661 1302.70666,729.8 1304.44,729.8 L1339.02,729.8 C1340.92668,729.8 1342.52999,730.406661 1343.83,731.62 C1345.13001,732.833339 1345.78,734.393324 1345.78,736.3 L1345.78,807.28 C1345.78,823.400081 1352.97326,831.46 1367.36,831.46 C1374.29337,831.46 1379.70998,829.336688 1383.61,825.09 C1387.51002,820.843312 1389.46,814.906705 1389.46,807.28 L1389.46,736.3 C1389.46,734.393324 1390.10999,732.833339 1391.41,731.62 C1392.71001,730.406661 1394.31332,729.8 1396.22,729.8 L1430.54,729.8 C1432.44668,729.8 1434.00666,730.406661 1435.22,731.62 C1436.43334,732.833339 1437.04,734.393324 1437.04,736.3 L1437.04,858.5 C1437.04,860.233342 1436.43334,861.749993 1435.22,863.05 C1434.00666,864.350006 1432.44668,865 1430.54,865 L1398.82,865 C1396.91332,865 1395.31001,864.393339 1394.01,863.18 C1392.70999,861.966661 1392.06,860.406676 1392.06,858.5 L1392.06,848.62 C1383.04662,861.273397 1368.6601,867.6 1348.9,867.6 Z M1473.18,865 C1471.44666,865 1469.93001,864.350006 1468.63,863.05 C1467.32999,861.749993 1466.68,860.233342 1466.68,858.5 L1466.68,736.3 C1466.68,734.393324 1467.32999,732.833339 1468.63,731.62 C1469.93001,730.406661 1471.44666,729.8 1473.18,729.8 L1505.16,729.8 C1507.06668,729.8 1508.62666,730.406661 1509.84,731.62 C1511.05334,732.833339 1511.66,734.393324 1511.66,736.3 L1511.66,746.18 C1516.34002,740.459971 1522.3633,735.866684 1529.73,732.4 C1537.0967,728.933316 1545.54662,727.2 1555.08,727.2 C1564.96005,727.2 1573.75663,729.453311 1581.47,733.96 C1589.18337,738.466689 1595.24998,745.139956 1599.67,753.98 C1604.09002,762.820044 1606.3,773.479938 1606.3,785.96 L1606.3,858.5 C1606.3,860.233342 1605.69334,861.749993 1604.48,863.05 C1603.26666,864.350006 1601.70668,865 1599.8,865 L1565.22,865 C1563.31332,865 1561.71001,864.393339 1560.41,863.18 C1559.10999,861.966661 1558.46,860.406676 1558.46,858.5 L1558.46,787.52 C1558.46,779.719961 1556.59669,773.740021 1552.87,769.58 C1549.14331,765.419979 1543.7267,763.34 1536.62,763.34 C1529.68663,763.34 1524.22669,765.463312 1520.24,769.71 C1516.25331,773.956688 1514.26,779.893295 1514.26,787.52 L1514.26,858.5 C1514.26,860.233342 1513.65334,861.749993 1512.44,863.05 C1511.22666,864.350006 1509.66668,865 1507.76,865 L1473.18,865 Z M1685.34,867.6 C1668.52658,867.6 1655.31005,862.313386 1645.69,851.74 C1636.06995,841.166614 1630.91334,826.086765 1630.22,806.5 L1629.96,797.4 L1630.22,788.04 C1630.91334,769.146572 1636.11328,754.283388 1645.82,743.45 C1655.52672,732.616612 1668.69992,727.2 1685.34,727.2 C1700.94008,727.2 1713.50662,732.226616 1723.04,742.28 L1723.04,686.9 C1723.04,684.993324 1723.68999,683.433339 1724.99,682.22 C1726.29001,681.006661 1727.80666,680.4 1729.54,680.4 L1763.08,680.4 C1764.98668,680.4 1766.58999,681.006661 1767.89,682.22 C1769.19001,683.433339 1769.84,684.993324 1769.84,686.9 L1769.84,858.5 C1769.84,860.406676 1769.19001,861.966661 1767.89,863.18 C1766.58999,864.393339 1764.98668,865 1763.08,865 L1732.14,865 C1730.40666,865 1728.89001,864.350006 1727.59,863.05 C1726.28999,861.749993 1725.64,860.233342 1725.64,858.5 L1725.64,850.44 C1716.27995,861.880057 1702.84675,867.6 1685.34,867.6 Z M1700.42,831.46 C1707.87337,831.46 1713.41998,829.076691 1717.06,824.31 C1720.70002,819.543309 1722.69333,813.520036 1723.04,806.24 C1723.38667,801.386642 1723.56,798.093342 1723.56,796.36 C1723.56,794.453324 1723.38667,791.246689 1723.04,786.74 C1722.69333,779.979966 1720.65669,774.390022 1716.93,769.97 C1713.20331,765.549978 1707.70004,763.34 1700.42,763.34 C1692.61996,763.34 1687.03002,765.636644 1683.65,770.23 C1680.26998,774.823356 1678.32,781.193293 1677.8,789.34 L1677.54,797.4 L1677.8,805.46 C1678.32,813.606707 1680.26998,819.976644 1683.65,824.57 C1687.03002,829.163356 1692.61996,831.46 1700.42,831.46 Z" id="Ethereum-Community-F" fill="#182226"></path>
    </g>
</svg>