<?xml version="1.0" encoding="UTF-8"?>
<svg width="158px" height="91px" viewBox="0 0 158 91" version="1.1" xmlns="http://www.w3.org/2000/svg" xmlns:xlink="http://www.w3.org/1999/xlink">
    <!-- Generator: Sketch 50.2 (55047) - http://www.bohemiancoding.com/sketch -->
    <title>Page 1</title>
    <desc>Created with Sketch.</desc>
    <defs>
        <polygon id="path-1" points="0 91 159 91 159 0 0 0"></polygon>
    </defs>
    <g id="mobile" stroke="none" stroke-width="1" fill="none" fill-rule="evenodd">
        <g id="Mobile" transform="translate(-22.000000, -40.000000)">
            <g id="Page-1" transform="translate(22.000000, 40.000000)">
                <polygon id="Fill-1" fill="#020303" points="0 91 158 91 158 0 0 0"></polygon>
                <g id="Group-29">
                    <path d="M17,16 L17,25 L18.9724771,25 C20.853211,25 22,24.2464532 22,21.9027832 L22,19.0141871 C22,16.9210016 21.2201835,16 19.4311927,16 L17,16 Z M22.0877193,42 C21.8245614,41.2285347 21.6491228,40.7570837 21.6491228,38.3141102 L21.6491228,33.5996 C21.6491228,30.8144674 20.6842105,29.7851326 18.4912281,29.7851326 L16.8245614,29.7851326 L16.8245614,42 L12,42 L12,12 L19.2807018,12 C24.2807018,12 26.4298246,14.2715367 26.4298246,18.8996143 L26.4298246,21.2568694 C26.4298246,24.3427306 25.4210526,26.3571122 23.2711988,27.3421592 C25.6842105,28.3279204 26.4729532,30.5994571 26.4729532,33.7281775 L26.4729532,38.3569694 C26.4729532,39.8134673 26.5175439,40.8849469 27,42 L22.0877193,42 Z" id="Fill-2" fill="#FEFEFE"></path>
                    <polygon id="Fill-4" fill="#FEFEFE" points="34.7669315 24.6427449 41.3106284 24.6427449 41.3106284 28.9279489 34.7669315 28.9279489 34.7669315 37.7140816 43 37.7140816 43 42 30 42 30 12 43 12 43 16.2852041 34.7669315 16.2852041"></polygon>
                    <path d="M52.0423294,12 C56.6096346,12 58.9573149,14.7710787 58.9573149,19.6204665 L58.9573149,20.5730248 L54.5180649,20.5730248 L54.5180649,19.3173798 C54.5180649,17.1524745 53.664363,16.3298105 52.1710961,16.3298105 C50.6764063,16.3298105 49.8234158,17.1524745 49.8234158,19.3173798 C49.8234158,25.5515853 59,26.7206341 59,35.3795335 C59,40.2289213 56.6096346,43 51.9996443,43 C47.3903654,43 45,40.2289213 45,35.3795335 L45,33.517715 L49.43925,33.517715 L49.43925,35.6826202 C49.43925,37.8475255 50.3776107,38.6268914 51.871589,38.6268914 C53.3655674,38.6268914 54.3046395,37.8475255 54.3046395,35.6826202 C54.3046395,29.4484147 45.1273439,28.2800875 45.1273439,19.6204665 C45.1273439,14.7710787 47.4750241,12 52.0423294,12" id="Fill-6" fill="#FEFEFE"></path>
                    <polygon id="Fill-8" fill="#FEFEFE" points="67.7673889 24.6427449 74.3107222 24.6427449 74.3107222 28.9279489 67.7673889 28.9279489 67.7673889 37.7140816 76 37.7140816 76 42 63 42 63 12 76 12 76 16.2852041 67.7673889 16.2852041"></polygon>
                    <path d="M84,32 L89,32 L86.5007862,17 L84,32 Z M95,42 L90.0984891,42 L89.2594918,36.5568837 L83.2981947,36.5568837 L82.4599333,42 L78,42 L82.9456686,12 L90.0543314,12 L95,42 Z" id="Fill-10" fill="#FEFEFE"></path>
                    <path d="M102,16 L102,25 L103.972014,25 C105.853036,25 107,24.2464532 107,21.9027832 L107,19.0141871 C107,16.9210016 106.220829,16 104.431564,16 L102,16 Z M107.087719,42 C106.824561,41.2285347 106.649854,40.7570837 106.649854,38.3141102 L106.649854,33.5996 C106.649854,30.8144674 105.684211,29.7851326 103.491228,29.7851326 L101.825292,29.7851326 L101.825292,42 L97,42 L97,12 L104.280702,12 C109.280702,12 111.429825,14.2715367 111.429825,18.8996143 L111.429825,21.2568694 C111.429825,24.3427306 110.421053,26.3571122 108.27193,27.3421592 C110.684211,28.3279204 111.473684,30.5994571 111.473684,33.7281775 L111.473684,38.3569694 C111.473684,39.8134673 111.517544,40.8849469 112,42 L107.087719,42 Z" id="Fill-12" fill="#FEFEFE"></path>
                    <path d="M128,31.3535314 L128,35.3795335 C128,40.2289213 125.610346,43 120.999644,43 C116.390365,43 114,40.2289213 114,35.3795335 L114,19.6197449 C114,14.7710787 116.390365,12 120.999644,12 C125.610346,12 128,14.7710787 128,19.6197449 L128,22.564016 L123.561461,22.564016 L123.561461,19.3166581 C123.561461,17.1517529 122.621678,16.3298105 121.128411,16.3298105 C119.633721,16.3298105 118.695361,17.1517529 118.695361,19.3166581 L118.695361,35.6826202 C118.695361,37.8475255 119.633721,38.6268914 121.128411,38.6268914 C122.621678,38.6268914 123.561461,37.8475255 123.561461,35.6826202 L123.561461,31.3535314 L128,31.3535314 Z" id="Fill-14" fill="#FEFEFE"></path>
                    <polygon id="Fill-16" fill="#FEFEFE" points="136.755272 42 132 42 132 12 136.755272 12 136.755272 24.8570408 142.158269 24.8570408 142.158269 12 147 12 147 42 142.158269 42 142.158269 29.1429592 136.755272 29.1429592"></polygon>
                    <mask id="mask-2" fill="white">
                        <use xlink:href="#path-1"></use>
                    </mask>
                    <g id="Clip-19"></g>
                    <polygon id="Fill-18" fill="#FEFEFE" mask="url(#mask-2)" points="12 79 17 79 17 49 12 49"></polygon>
                    <polygon id="Fill-20" fill="#FEFEFE" mask="url(#mask-2)" points="24.2545012 57.2711081 24.2545012 79 20 79 20 49 25.930799 49 30.7877645 66.9572837 30.7877645 49 35 49 35 79 30.1430345 79"></polygon>
                    <path d="M45.0423294,48 C49.6096346,48 51.9573149,50.7710787 51.9573149,55.6204665 L51.9573149,56.5730248 L47.5180649,56.5730248 L47.5180649,55.3173798 C47.5180649,53.1524745 46.664363,52.3298105 45.1710961,52.3298105 C43.6764063,52.3298105 42.8234158,53.1524745 42.8234158,55.3173798 C42.8234158,61.5515853 52,62.7206341 52,71.3795335 C52,76.2289213 49.6096346,79 44.9996443,79 C40.3903654,79 38,76.2289213 38,71.3795335 L38,69.517715 L42.43925,69.517715 L42.43925,71.6826202 C42.43925,73.8475255 43.3776107,74.6268914 44.871589,74.6268914 C46.3655674,74.6268914 47.3046395,73.8475255 47.3046395,71.6826202 C47.3046395,65.4484147 38.1273439,64.2800875 38.1273439,55.6204665 C38.1273439,50.7710787 40.4750241,48 45.0423294,48" id="Fill-21" fill="#FEFEFE" mask="url(#mask-2)"></path>
                    <polygon id="Fill-22" fill="#FEFEFE" mask="url(#mask-2)" points="53 49 68 49 68 53.2852041 62.9267085 53.2852041 62.9267085 79 58.0732915 79 58.0732915 53.2852041 53 53.2852041"></polygon>
                    <polygon id="Fill-23" fill="#FEFEFE" mask="url(#mask-2)" points="70 79 75 79 75 49 70 49"></polygon>
                    <polygon id="Fill-24" fill="#FEFEFE" mask="url(#mask-2)" points="77 49 92 49 92 53.2852041 86.9269572 53.2852041 86.9269572 79 82.0737781 79 82.0737781 53.2852041 77 53.2852041"></polygon>
                    <path d="M97.695122,49 L97.695122,72.6103719 C97.695122,74.7966524 98.6341463,75.5844421 100.128049,75.5844421 C101.622663,75.5844421 102.560976,74.7966524 102.560976,72.6103719 L102.560976,49 L107,49 L107,72.3050214 C107,77.201561 104.609756,80 100,80 C95.3909553,80 93,77.201561 93,72.3050214 L93,49 L97.695122,49 Z" id="Fill-25" fill="#FEFEFE" mask="url(#mask-2)"></path>
                    <polygon id="Fill-26" fill="#FEFEFE" mask="url(#mask-2)" points="109 49 124 49 124 53.2852041 118.926709 53.2852041 118.926709 79 114.073291 79 114.073291 53.2852041 109 53.2852041"></polygon>
                    <polygon id="Fill-27" fill="#FEFEFE" mask="url(#mask-2)" points="130.766931 61.6427449 137.310628 61.6427449 137.310628 65.9279489 130.766931 65.9279489 130.766931 74.7140816 139 74.7140816 139 79 126 79 126 49 139 49 139 53.2852041 130.766931 53.2852041"></polygon>
                    <polygon id="Fill-28" fill="#FEFEFE" mask="url(#mask-2)" points="142 79 147 79 147 74 142 74"></polygon>
                </g>
            </g>
        </g>
    </g>
</svg>